solid OpenSCAD_Model
  facet normal 0 0 -1
    outer loop
      vertex -53 0 0
      vertex -52.8954 3.3279 0
      vertex -52.8954 -3.3279 0
    endloop
  endfacet
  facet normal 0 0 -1
    outer loop
      vertex -52.8954 -3.3279 0
      vertex -52.8954 3.3279 0
      vertex -52.5821 6.64266 0
    endloop
  endfacet
  facet normal 0 0 -1
    outer loop
      vertex -52.8954 -3.3279 0
      vertex -52.5821 6.64266 0
      vertex -52.0612 9.93121 0
    endloop
  endfacet
  facet normal 0 0 -1
    outer loop
      vertex -52.8954 -3.3279 0
      vertex -52.0612 9.93121 0
      vertex -51.3349 13.1806 0
    endloop
  endfacet
  facet normal 0 0 -1
    outer loop
      vertex -52.8954 -3.3279 0
      vertex -51.3349 13.1806 0
      vertex -50.406 16.3779 0
    endloop
  endfacet
  facet normal 0 0 -1
    outer loop
      vertex -52.8954 -3.3279 0
      vertex -50.406 16.3779 0
      vertex -49.2782 19.5106 0
    endloop
  endfacet
  facet normal 0 0 -1
    outer loop
      vertex -52.8954 -3.3279 0
      vertex -49.2782 19.5106 0
      vertex -47.9558 22.5663 0
    endloop
  endfacet
  facet normal 0 0 -1
    outer loop
      vertex -52.8954 -3.3279 0
      vertex -47.9558 22.5663 0
      vertex -46.4443 25.5329 0
    endloop
  endfacet
  facet normal 0 0 -1
    outer loop
      vertex -52.8954 -3.3279 0
      vertex -46.4443 25.5329 0
      vertex -44.7494 28.3988 0
    endloop
  endfacet
  facet normal 0 0 -1
    outer loop
      vertex -52.8954 -3.3279 0
      vertex -44.7494 28.3988 0
      vertex -42.8779 31.1526 0
    endloop
  endfacet
  facet normal 0 0 -1
    outer loop
      vertex -52.8954 -3.3279 0
      vertex -42.8779 31.1526 0
      vertex -40.8372 33.7835 0
    endloop
  endfacet
  facet normal 0 0 -1
    outer loop
      vertex -52.8954 -3.3279 0
      vertex -40.8372 33.7835 0
      vertex -38.6353 36.281 0
    endloop
  endfacet
  facet normal 0 0 -1
    outer loop
      vertex -52.8954 -3.3279 0
      vertex -38.6353 36.281 0
      vertex -36.281 38.6353 0
    endloop
  endfacet
  facet normal 0 0 -1
    outer loop
      vertex -52.8954 -3.3279 0
      vertex -36.281 38.6353 0
      vertex -33.7835 40.8372 0
    endloop
  endfacet
  facet normal 0 0 -1
    outer loop
      vertex -52.8954 -3.3279 0
      vertex -33.7835 40.8372 0
      vertex -31.1526 42.8779 0
    endloop
  endfacet
  facet normal 0 0 -1
    outer loop
      vertex -52.8954 -3.3279 0
      vertex -31.1526 42.8779 0
      vertex -28.3988 44.7494 0
    endloop
  endfacet
  facet normal 0 0 -1
    outer loop
      vertex -52.8954 -3.3279 0
      vertex -28.3988 44.7494 0
      vertex -25.5329 46.4443 0
    endloop
  endfacet
  facet normal 0 0 -1
    outer loop
      vertex -52.8954 -3.3279 0
      vertex -25.5329 46.4443 0
      vertex -22.5663 47.9558 0
    endloop
  endfacet
  facet normal 0 0 -1
    outer loop
      vertex -52.8954 -3.3279 0
      vertex -22.5663 47.9558 0
      vertex -19.5106 49.2782 0
    endloop
  endfacet
  facet normal 0 0 -1
    outer loop
      vertex -52.8954 -3.3279 0
      vertex -19.5106 49.2782 0
      vertex -16.3779 50.406 0
    endloop
  endfacet
  facet normal 0 0 -1
    outer loop
      vertex -52.8954 -3.3279 0
      vertex -16.3779 50.406 0
      vertex -13.1806 51.3349 0
    endloop
  endfacet
  facet normal 0 0 -1
    outer loop
      vertex -52.8954 -3.3279 0
      vertex -13.1806 51.3349 0
      vertex -9.93121 52.0612 0
    endloop
  endfacet
  facet normal 0 0 -1
    outer loop
      vertex -52.8954 -3.3279 0
      vertex -9.93121 52.0612 0
      vertex -6.64266 52.5821 0
    endloop
  endfacet
  facet normal 0 0 -1
    outer loop
      vertex -31 22 0
      vertex -6.64266 52.5821 0
      vertex -3.3279 52.8954 0
    endloop
  endfacet
  facet normal 0 0 -1
    outer loop
      vertex 35 22 0
      vertex 47.9558 22.5663 0
      vertex 49.2782 19.5106 0
    endloop
  endfacet
  facet normal 0 0 -1
    outer loop
      vertex 35 -22 0
      vertex 46.4443 -25.5329 0
      vertex 44.7494 -28.3988 0
    endloop
  endfacet
  facet normal 0 0 -1
    outer loop
      vertex 35 -22 0
      vertex 44.7494 -28.3988 0
      vertex 42.8779 -31.1526 0
    endloop
  endfacet
  facet normal 0 0 -1
    outer loop
      vertex 35 22 0
      vertex 46.4443 25.5329 0
      vertex 47.9558 22.5663 0
    endloop
  endfacet
  facet normal 0 0 -1
    outer loop
      vertex 35 -22 0
      vertex 47.9558 -22.5663 0
      vertex 46.4443 -25.5329 0
    endloop
  endfacet
  facet normal 0 0 -1
    outer loop
      vertex 35 -22 0
      vertex 6.64266 -52.5821 0
      vertex -31 -22 0
    endloop
  endfacet
  facet normal 0 0 -1
    outer loop
      vertex 35 -22 0
      vertex 9.93121 -52.0612 0
      vertex 6.64266 -52.5821 0
    endloop
  endfacet
  facet normal 0 0 -1
    outer loop
      vertex 35 -22 0
      vertex 13.1806 -51.3349 0
      vertex 9.93121 -52.0612 0
    endloop
  endfacet
  facet normal 0 0 -1
    outer loop
      vertex 35 -22 0
      vertex 16.3779 -50.406 0
      vertex 13.1806 -51.3349 0
    endloop
  endfacet
  facet normal 0 0 -1
    outer loop
      vertex 35 -22 0
      vertex 19.5106 -49.2782 0
      vertex 16.3779 -50.406 0
    endloop
  endfacet
  facet normal 0 0 -1
    outer loop
      vertex 35 -22 0
      vertex 22.5663 -47.9558 0
      vertex 19.5106 -49.2782 0
    endloop
  endfacet
  facet normal 0 0 -1
    outer loop
      vertex 35 -22 0
      vertex 25.5329 -46.4443 0
      vertex 22.5663 -47.9558 0
    endloop
  endfacet
  facet normal 0 0 -1
    outer loop
      vertex 35 -22 0
      vertex 28.3988 -44.7494 0
      vertex 25.5329 -46.4443 0
    endloop
  endfacet
  facet normal 0 0 -1
    outer loop
      vertex 35 -22 0
      vertex 31.1526 -42.8779 0
      vertex 28.3988 -44.7494 0
    endloop
  endfacet
  facet normal 0 0 -1
    outer loop
      vertex 35 -22 0
      vertex 33.7835 -40.8372 0
      vertex 31.1526 -42.8779 0
    endloop
  endfacet
  facet normal 0 0 -1
    outer loop
      vertex 35 -22 0
      vertex 36.281 -38.6353 0
      vertex 33.7835 -40.8372 0
    endloop
  endfacet
  facet normal 0 0 -1
    outer loop
      vertex 35 -22 0
      vertex 38.6353 -36.281 0
      vertex 36.281 -38.6353 0
    endloop
  endfacet
  facet normal 0 0 -1
    outer loop
      vertex 35 -22 0
      vertex 40.8372 -33.7835 0
      vertex 38.6353 -36.281 0
    endloop
  endfacet
  facet normal 0 0 -1
    outer loop
      vertex -31 -22 0
      vertex 6.64266 -52.5821 0
      vertex 3.3279 -52.8954 0
    endloop
  endfacet
  facet normal 0 0 -1
    outer loop
      vertex -52.8954 -3.3279 0
      vertex 3.3279 -52.8954 0
      vertex 0 -53 0
    endloop
  endfacet
  facet normal 0 0 -1
    outer loop
      vertex -52.8954 -3.3279 0
      vertex 0 -53 0
      vertex -3.3279 -52.8954 0
    endloop
  endfacet
  facet normal 0 0 -1
    outer loop
      vertex -52.8954 -3.3279 0
      vertex -3.3279 -52.8954 0
      vertex -6.64266 -52.5821 0
    endloop
  endfacet
  facet normal 0 0 -1
    outer loop
      vertex -52.8954 -3.3279 0
      vertex -6.64266 -52.5821 0
      vertex -9.93121 -52.0612 0
    endloop
  endfacet
  facet normal 0 0 -1
    outer loop
      vertex -52.8954 -3.3279 0
      vertex -9.93121 -52.0612 0
      vertex -13.1806 -51.3349 0
    endloop
  endfacet
  facet normal 0 0 -1
    outer loop
      vertex -52.8954 -3.3279 0
      vertex -13.1806 -51.3349 0
      vertex -16.3779 -50.406 0
    endloop
  endfacet
  facet normal 0 0 -1
    outer loop
      vertex -52.8954 -3.3279 0
      vertex -16.3779 -50.406 0
      vertex -19.5106 -49.2782 0
    endloop
  endfacet
  facet normal 0 0 -1
    outer loop
      vertex -52.8954 -3.3279 0
      vertex -19.5106 -49.2782 0
      vertex -22.5663 -47.9558 0
    endloop
  endfacet
  facet normal 0 0 -1
    outer loop
      vertex -52.8954 -3.3279 0
      vertex -22.5663 -47.9558 0
      vertex -25.5329 -46.4443 0
    endloop
  endfacet
  facet normal 0 0 -1
    outer loop
      vertex -52.8954 -3.3279 0
      vertex -25.5329 -46.4443 0
      vertex -28.3988 -44.7494 0
    endloop
  endfacet
  facet normal 0 0 -1
    outer loop
      vertex -52.8954 -3.3279 0
      vertex -28.3988 -44.7494 0
      vertex -31.1526 -42.8779 0
    endloop
  endfacet
  facet normal 0 0 -1
    outer loop
      vertex -52.8954 -3.3279 0
      vertex -31.1526 -42.8779 0
      vertex -33.7835 -40.8372 0
    endloop
  endfacet
  facet normal 0 0 -1
    outer loop
      vertex -52.8954 -3.3279 0
      vertex -33.7835 -40.8372 0
      vertex -36.281 -38.6353 0
    endloop
  endfacet
  facet normal 0 0 -1
    outer loop
      vertex -52.8954 -3.3279 0
      vertex -36.281 -38.6353 0
      vertex -38.6353 -36.281 0
    endloop
  endfacet
  facet normal 0 0 -1
    outer loop
      vertex -52.8954 -3.3279 0
      vertex -38.6353 -36.281 0
      vertex -40.8372 -33.7835 0
    endloop
  endfacet
  facet normal 0 0 -1
    outer loop
      vertex -52.8954 -3.3279 0
      vertex -40.8372 -33.7835 0
      vertex -42.8779 -31.1526 0
    endloop
  endfacet
  facet normal 0 0 -1
    outer loop
      vertex -52.8954 -3.3279 0
      vertex -42.8779 -31.1526 0
      vertex -44.7494 -28.3988 0
    endloop
  endfacet
  facet normal 0 0 -1
    outer loop
      vertex -52.8954 -3.3279 0
      vertex -44.7494 -28.3988 0
      vertex -46.4443 -25.5329 0
    endloop
  endfacet
  facet normal 0 0 -1
    outer loop
      vertex -52.8954 -3.3279 0
      vertex -46.4443 -25.5329 0
      vertex -47.9558 -22.5663 0
    endloop
  endfacet
  facet normal 0 0 -1
    outer loop
      vertex -52.8954 -3.3279 0
      vertex -47.9558 -22.5663 0
      vertex -49.2782 -19.5106 0
    endloop
  endfacet
  facet normal 0 0 -1
    outer loop
      vertex -52.8954 -3.3279 0
      vertex -49.2782 -19.5106 0
      vertex -50.406 -16.3779 0
    endloop
  endfacet
  facet normal 0 0 -1
    outer loop
      vertex -52.8954 -3.3279 0
      vertex -50.406 -16.3779 0
      vertex -51.3349 -13.1806 0
    endloop
  endfacet
  facet normal 0 0 -1
    outer loop
      vertex -52.8954 -3.3279 0
      vertex -51.3349 -13.1806 0
      vertex -52.0612 -9.93121 0
    endloop
  endfacet
  facet normal 0 0 -1
    outer loop
      vertex -52.8954 -3.3279 0
      vertex -52.0612 -9.93121 0
      vertex -52.5821 -6.64266 0
    endloop
  endfacet
  facet normal 0 0 -1
    outer loop
      vertex -52.8954 -3.3279 0
      vertex -6.64266 52.5821 0
      vertex -31 22 0
    endloop
  endfacet
  facet normal 0 0 -1
    outer loop
      vertex -31 -22 0
      vertex -52.8954 -3.3279 0
      vertex -31 22 0
    endloop
  endfacet
  facet normal 0 0 -1
    outer loop
      vertex 35 -22 0
      vertex 42.8779 -31.1526 0
      vertex 40.8372 -33.7835 0
    endloop
  endfacet
  facet normal 0 0 -1
    outer loop
      vertex -52.8954 -3.3279 0
      vertex -31 -22 0
      vertex 3.3279 -52.8954 0
    endloop
  endfacet
  facet normal 0 0 -1
    outer loop
      vertex 35 22 0
      vertex 49.2782 19.5106 0
      vertex 50.406 16.3779 0
    endloop
  endfacet
  facet normal 0 0 -1
    outer loop
      vertex -31 22 0
      vertex -3.3279 52.8954 0
      vertex 0 53 0
    endloop
  endfacet
  facet normal 0 0 -1
    outer loop
      vertex -31 22 0
      vertex 0 53 0
      vertex 3.3279 52.8954 0
    endloop
  endfacet
  facet normal 0 0 -1
    outer loop
      vertex -31 22 0
      vertex 3.3279 52.8954 0
      vertex 6.64266 52.5821 0
    endloop
  endfacet
  facet normal 0 0 -1
    outer loop
      vertex -31 22 0
      vertex 6.64266 52.5821 0
      vertex 9.93121 52.0612 0
    endloop
  endfacet
  facet normal 0 0 -1
    outer loop
      vertex -31 22 0
      vertex 9.93121 52.0612 0
      vertex 13.1806 51.3349 0
    endloop
  endfacet
  facet normal 0 0 -1
    outer loop
      vertex -31 22 0
      vertex 13.1806 51.3349 0
      vertex 16.3779 50.406 0
    endloop
  endfacet
  facet normal 0 0 -1
    outer loop
      vertex -31 22 0
      vertex 16.3779 50.406 0
      vertex 19.5106 49.2782 0
    endloop
  endfacet
  facet normal 0 0 -1
    outer loop
      vertex -31 22 0
      vertex 19.5106 49.2782 0
      vertex 22.5663 47.9558 0
    endloop
  endfacet
  facet normal 0 0 -1
    outer loop
      vertex -31 22 0
      vertex 22.5663 47.9558 0
      vertex 25.5329 46.4443 0
    endloop
  endfacet
  facet normal 0 0 -1
    outer loop
      vertex -31 22 0
      vertex 25.5329 46.4443 0
      vertex 28.3988 44.7494 0
    endloop
  endfacet
  facet normal 0 0 -1
    outer loop
      vertex -31 22 0
      vertex 28.3988 44.7494 0
      vertex 31.1526 42.8779 0
    endloop
  endfacet
  facet normal 0 0 -1
    outer loop
      vertex -31 22 0
      vertex 31.1526 42.8779 0
      vertex 33.7835 40.8372 0
    endloop
  endfacet
  facet normal 0 0 -1
    outer loop
      vertex -31 22 0
      vertex 33.7835 40.8372 0
      vertex 36.281 38.6353 0
    endloop
  endfacet
  facet normal 0 0 -1
    outer loop
      vertex -31 22 0
      vertex 36.281 38.6353 0
      vertex 38.6353 36.281 0
    endloop
  endfacet
  facet normal 0 0 -1
    outer loop
      vertex -31 22 0
      vertex 38.6353 36.281 0
      vertex 40.8372 33.7835 0
    endloop
  endfacet
  facet normal 0 0 -1
    outer loop
      vertex -31 22 0
      vertex 40.8372 33.7835 0
      vertex 42.8779 31.1526 0
    endloop
  endfacet
  facet normal 0 0 -1
    outer loop
      vertex -31 22 0
      vertex 42.8779 31.1526 0
      vertex 44.7494 28.3988 0
    endloop
  endfacet
  facet normal 0 0 -1
    outer loop
      vertex -31 22 0
      vertex 44.7494 28.3988 0
      vertex 46.4443 25.5329 0
    endloop
  endfacet
  facet normal 0 0 -1
    outer loop
      vertex -31 22 0
      vertex 46.4443 25.5329 0
      vertex 35 22 0
    endloop
  endfacet
  facet normal 0 0 -1
    outer loop
      vertex 35 22 0
      vertex 50.406 16.3779 0
      vertex 51.3349 13.1806 0
    endloop
  endfacet
  facet normal 0 0 -1
    outer loop
      vertex 35 22 0
      vertex 51.3349 13.1806 0
      vertex 52.0612 9.93121 0
    endloop
  endfacet
  facet normal 0 0 -1
    outer loop
      vertex 35 22 0
      vertex 52.0612 9.93121 0
      vertex 52.5821 6.64266 0
    endloop
  endfacet
  facet normal 0 0 -1
    outer loop
      vertex 35 22 0
      vertex 52.5821 6.64266 0
      vertex 52.8954 3.3279 0
    endloop
  endfacet
  facet normal 0 0 -1
    outer loop
      vertex 35 22 0
      vertex 52.8954 3.3279 0
      vertex 53 0 0
    endloop
  endfacet
  facet normal 0 0 -1
    outer loop
      vertex 35 22 0
      vertex 53 0 0
      vertex 52.8954 -3.3279 0
    endloop
  endfacet
  facet normal 0 0 -1
    outer loop
      vertex 35 22 0
      vertex 52.8954 -3.3279 0
      vertex 52.5821 -6.64266 0
    endloop
  endfacet
  facet normal 0 0 -1
    outer loop
      vertex 35 22 0
      vertex 52.5821 -6.64266 0
      vertex 52.0612 -9.93121 0
    endloop
  endfacet
  facet normal 0 0 -1
    outer loop
      vertex 35 22 0
      vertex 52.0612 -9.93121 0
      vertex 51.3349 -13.1806 0
    endloop
  endfacet
  facet normal 0 0 -1
    outer loop
      vertex 35 22 0
      vertex 51.3349 -13.1806 0
      vertex 50.406 -16.3779 0
    endloop
  endfacet
  facet normal 0 0 -1
    outer loop
      vertex 35 22 0
      vertex 50.406 -16.3779 0
      vertex 49.2782 -19.5106 0
    endloop
  endfacet
  facet normal 0 0 -1
    outer loop
      vertex 35 22 0
      vertex 49.2782 -19.5106 0
      vertex 47.9558 -22.5663 0
    endloop
  endfacet
  facet normal 0 0 -1
    outer loop
      vertex 35 22 0
      vertex 47.9558 -22.5663 0
      vertex 35 -22 0
    endloop
  endfacet
  facet normal -0.999507 0.0314106 0
    outer loop
      vertex -53 0 0
      vertex -53 0 2
      vertex -52.8954 3.3279 0
    endloop
  endfacet
  facet normal -0.999507 0.0314106 0
    outer loop
      vertex -52.8954 3.3279 0
      vertex -53 0 2
      vertex -52.8954 3.3279 2
    endloop
  endfacet
  facet normal -0.999507 -0.0314106 0
    outer loop
      vertex -53 0 0
      vertex -52.8954 -3.3279 0
      vertex -53 0 2
    endloop
  endfacet
  facet normal -0.999507 -0.0314106 0
    outer loop
      vertex -53 0 2
      vertex -52.8954 -3.3279 0
      vertex -52.8954 -3.3279 2
    endloop
  endfacet
  facet normal -0.995562 -0.0941085 0
    outer loop
      vertex -52.8954 -3.3279 0
      vertex -52.5821 -6.64266 0
      vertex -52.8954 -3.3279 2
    endloop
  endfacet
  facet normal -0.995562 -0.0941085 0
    outer loop
      vertex -52.8954 -3.3279 2
      vertex -52.5821 -6.64266 0
      vertex -52.5821 -6.64266 2
    endloop
  endfacet
  facet normal -0.987688 -0.156434 0
    outer loop
      vertex -52.5821 -6.64266 0
      vertex -52.0612 -9.93121 0
      vertex -52.5821 -6.64266 2
    endloop
  endfacet
  facet normal -0.987688 -0.156434 0
    outer loop
      vertex -52.5821 -6.64266 2
      vertex -52.0612 -9.93121 0
      vertex -52.0612 -9.93121 2
    endloop
  endfacet
  facet normal -0.975917 -0.218143 0
    outer loop
      vertex -52.0612 -9.93121 0
      vertex -51.3349 -13.1806 0
      vertex -52.0612 -9.93121 2
    endloop
  endfacet
  facet normal -0.975917 -0.218143 0
    outer loop
      vertex -52.0612 -9.93121 2
      vertex -51.3349 -13.1806 0
      vertex -51.3349 -13.1806 2
    endloop
  endfacet
  facet normal -0.960294 -0.278991 0
    outer loop
      vertex -51.3349 -13.1806 0
      vertex -50.406 -16.3779 0
      vertex -51.3349 -13.1806 2
    endloop
  endfacet
  facet normal -0.960294 -0.278991 0
    outer loop
      vertex -51.3349 -13.1806 2
      vertex -50.406 -16.3779 0
      vertex -50.406 -16.3779 2
    endloop
  endfacet
  facet normal -0.940881 -0.338738 0
    outer loop
      vertex -50.406 -16.3779 0
      vertex -49.2782 -19.5106 0
      vertex -50.406 -16.3779 2
    endloop
  endfacet
  facet normal -0.940881 -0.338738 0
    outer loop
      vertex -50.406 -16.3779 2
      vertex -49.2782 -19.5106 0
      vertex -49.2782 -19.5106 2
    endloop
  endfacet
  facet normal -0.917755 -0.397148 0
    outer loop
      vertex -49.2782 -19.5106 0
      vertex -47.9558 -22.5663 0
      vertex -49.2782 -19.5106 2
    endloop
  endfacet
  facet normal -0.917755 -0.397148 0
    outer loop
      vertex -49.2782 -19.5106 2
      vertex -47.9558 -22.5663 0
      vertex -47.9558 -22.5663 2
    endloop
  endfacet
  facet normal -0.891007 -0.45399 0
    outer loop
      vertex -47.9558 -22.5663 0
      vertex -46.4443 -25.5329 0
      vertex -47.9558 -22.5663 2
    endloop
  endfacet
  facet normal -0.891007 -0.45399 0
    outer loop
      vertex -47.9558 -22.5663 2
      vertex -46.4443 -25.5329 0
      vertex -46.4443 -25.5329 2
    endloop
  endfacet
  facet normal -0.860742 -0.509041 0
    outer loop
      vertex -46.4443 -25.5329 0
      vertex -44.7494 -28.3988 0
      vertex -46.4443 -25.5329 2
    endloop
  endfacet
  facet normal -0.860742 -0.509041 0
    outer loop
      vertex -46.4443 -25.5329 2
      vertex -44.7494 -28.3988 0
      vertex -44.7494 -28.3988 2
    endloop
  endfacet
  facet normal -0.827081 -0.562083 0
    outer loop
      vertex -44.7494 -28.3988 0
      vertex -42.8779 -31.1526 0
      vertex -44.7494 -28.3988 2
    endloop
  endfacet
  facet normal -0.827081 -0.562083 0
    outer loop
      vertex -44.7494 -28.3988 2
      vertex -42.8779 -31.1526 0
      vertex -42.8779 -31.1526 2
    endloop
  endfacet
  facet normal -0.790155 -0.612907 0
    outer loop
      vertex -42.8779 -31.1526 0
      vertex -40.8372 -33.7835 0
      vertex -42.8779 -31.1526 2
    endloop
  endfacet
  facet normal -0.790155 -0.612907 0
    outer loop
      vertex -42.8779 -31.1526 2
      vertex -40.8372 -33.7835 0
      vertex -40.8372 -33.7835 2
    endloop
  endfacet
  facet normal -0.750111 -0.661312 0
    outer loop
      vertex -40.8372 -33.7835 0
      vertex -38.6353 -36.281 0
      vertex -40.8372 -33.7835 2
    endloop
  endfacet
  facet normal -0.750111 -0.661312 0
    outer loop
      vertex -40.8372 -33.7835 2
      vertex -38.6353 -36.281 0
      vertex -38.6353 -36.281 2
    endloop
  endfacet
  facet normal -0.707107 -0.707107 0
    outer loop
      vertex -38.6353 -36.281 2
      vertex -38.6353 -36.281 0
      vertex -36.281 -38.6353 0
    endloop
  endfacet
  facet normal -0.707107 -0.707107 0
    outer loop
      vertex -36.281 -38.6353 2
      vertex -38.6353 -36.281 2
      vertex -36.281 -38.6353 0
    endloop
  endfacet
  facet normal -0.661312 -0.750111 0
    outer loop
      vertex -36.281 -38.6353 2
      vertex -36.281 -38.6353 0
      vertex -33.7835 -40.8372 0
    endloop
  endfacet
  facet normal -0.661312 -0.750111 0
    outer loop
      vertex -33.7835 -40.8372 2
      vertex -36.281 -38.6353 2
      vertex -33.7835 -40.8372 0
    endloop
  endfacet
  facet normal -0.612907 -0.790155 0
    outer loop
      vertex -33.7835 -40.8372 2
      vertex -33.7835 -40.8372 0
      vertex -31.1526 -42.8779 0
    endloop
  endfacet
  facet normal -0.612907 -0.790155 0
    outer loop
      vertex -31.1526 -42.8779 2
      vertex -33.7835 -40.8372 2
      vertex -31.1526 -42.8779 0
    endloop
  endfacet
  facet normal -0.562083 -0.827081 0
    outer loop
      vertex -31.1526 -42.8779 2
      vertex -31.1526 -42.8779 0
      vertex -28.3988 -44.7494 0
    endloop
  endfacet
  facet normal -0.562083 -0.827081 0
    outer loop
      vertex -28.3988 -44.7494 2
      vertex -31.1526 -42.8779 2
      vertex -28.3988 -44.7494 0
    endloop
  endfacet
  facet normal -0.509041 -0.860742 0
    outer loop
      vertex -28.3988 -44.7494 2
      vertex -28.3988 -44.7494 0
      vertex -25.5329 -46.4443 0
    endloop
  endfacet
  facet normal -0.509041 -0.860742 0
    outer loop
      vertex -25.5329 -46.4443 2
      vertex -28.3988 -44.7494 2
      vertex -25.5329 -46.4443 0
    endloop
  endfacet
  facet normal -0.45399 -0.891007 0
    outer loop
      vertex -25.5329 -46.4443 2
      vertex -25.5329 -46.4443 0
      vertex -22.5663 -47.9558 0
    endloop
  endfacet
  facet normal -0.45399 -0.891007 0
    outer loop
      vertex -22.5663 -47.9558 2
      vertex -25.5329 -46.4443 2
      vertex -22.5663 -47.9558 0
    endloop
  endfacet
  facet normal -0.397148 -0.917755 0
    outer loop
      vertex -22.5663 -47.9558 2
      vertex -22.5663 -47.9558 0
      vertex -19.5106 -49.2782 0
    endloop
  endfacet
  facet normal -0.397148 -0.917755 0
    outer loop
      vertex -19.5106 -49.2782 2
      vertex -22.5663 -47.9558 2
      vertex -19.5106 -49.2782 0
    endloop
  endfacet
  facet normal -0.338738 -0.940881 0
    outer loop
      vertex -19.5106 -49.2782 2
      vertex -19.5106 -49.2782 0
      vertex -16.3779 -50.406 0
    endloop
  endfacet
  facet normal -0.338738 -0.940881 0
    outer loop
      vertex -16.3779 -50.406 2
      vertex -19.5106 -49.2782 2
      vertex -16.3779 -50.406 0
    endloop
  endfacet
  facet normal -0.278991 -0.960294 0
    outer loop
      vertex -16.3779 -50.406 2
      vertex -16.3779 -50.406 0
      vertex -13.1806 -51.3349 0
    endloop
  endfacet
  facet normal -0.278991 -0.960294 0
    outer loop
      vertex -13.1806 -51.3349 2
      vertex -16.3779 -50.406 2
      vertex -13.1806 -51.3349 0
    endloop
  endfacet
  facet normal -0.218143 -0.975917 0
    outer loop
      vertex -13.1806 -51.3349 2
      vertex -13.1806 -51.3349 0
      vertex -9.93121 -52.0612 0
    endloop
  endfacet
  facet normal -0.218143 -0.975917 0
    outer loop
      vertex -9.93121 -52.0612 2
      vertex -13.1806 -51.3349 2
      vertex -9.93121 -52.0612 0
    endloop
  endfacet
  facet normal -0.156434 -0.987688 0
    outer loop
      vertex -9.93121 -52.0612 2
      vertex -9.93121 -52.0612 0
      vertex -6.64266 -52.5821 0
    endloop
  endfacet
  facet normal -0.156434 -0.987688 0
    outer loop
      vertex -6.64266 -52.5821 2
      vertex -9.93121 -52.0612 2
      vertex -6.64266 -52.5821 0
    endloop
  endfacet
  facet normal -0.0941085 -0.995562 0
    outer loop
      vertex -6.64266 -52.5821 2
      vertex -6.64266 -52.5821 0
      vertex -3.3279 -52.8954 0
    endloop
  endfacet
  facet normal -0.0941085 -0.995562 0
    outer loop
      vertex -3.3279 -52.8954 2
      vertex -6.64266 -52.5821 2
      vertex -3.3279 -52.8954 0
    endloop
  endfacet
  facet normal -0.0314106 -0.999507 0
    outer loop
      vertex -3.3279 -52.8954 2
      vertex -3.3279 -52.8954 0
      vertex 0 -53 0
    endloop
  endfacet
  facet normal -0.0314106 -0.999507 0
    outer loop
      vertex 0 -53 2
      vertex -3.3279 -52.8954 2
      vertex 0 -53 0
    endloop
  endfacet
  facet normal 0.0314106 -0.999507 0
    outer loop
      vertex 0 -53 2
      vertex 0 -53 0
      vertex 3.3279 -52.8954 0
    endloop
  endfacet
  facet normal 0.0314106 -0.999507 0
    outer loop
      vertex 3.3279 -52.8954 2
      vertex 0 -53 2
      vertex 3.3279 -52.8954 0
    endloop
  endfacet
  facet normal 0.0941085 -0.995562 0
    outer loop
      vertex 3.3279 -52.8954 2
      vertex 3.3279 -52.8954 0
      vertex 6.64266 -52.5821 0
    endloop
  endfacet
  facet normal 0.0941085 -0.995562 0
    outer loop
      vertex 6.64266 -52.5821 2
      vertex 3.3279 -52.8954 2
      vertex 6.64266 -52.5821 0
    endloop
  endfacet
  facet normal 0.156434 -0.987688 0
    outer loop
      vertex 6.64266 -52.5821 2
      vertex 6.64266 -52.5821 0
      vertex 9.93121 -52.0612 0
    endloop
  endfacet
  facet normal 0.156434 -0.987688 0
    outer loop
      vertex 9.93121 -52.0612 2
      vertex 6.64266 -52.5821 2
      vertex 9.93121 -52.0612 0
    endloop
  endfacet
  facet normal 0.218143 -0.975917 0
    outer loop
      vertex 9.93121 -52.0612 2
      vertex 9.93121 -52.0612 0
      vertex 13.1806 -51.3349 0
    endloop
  endfacet
  facet normal 0.218143 -0.975917 0
    outer loop
      vertex 13.1806 -51.3349 2
      vertex 9.93121 -52.0612 2
      vertex 13.1806 -51.3349 0
    endloop
  endfacet
  facet normal 0.278991 -0.960294 0
    outer loop
      vertex 13.1806 -51.3349 2
      vertex 13.1806 -51.3349 0
      vertex 16.3779 -50.406 0
    endloop
  endfacet
  facet normal 0.278991 -0.960294 0
    outer loop
      vertex 16.3779 -50.406 2
      vertex 13.1806 -51.3349 2
      vertex 16.3779 -50.406 0
    endloop
  endfacet
  facet normal 0.338738 -0.940881 0
    outer loop
      vertex 16.3779 -50.406 2
      vertex 16.3779 -50.406 0
      vertex 19.5106 -49.2782 0
    endloop
  endfacet
  facet normal 0.338738 -0.940881 0
    outer loop
      vertex 19.5106 -49.2782 2
      vertex 16.3779 -50.406 2
      vertex 19.5106 -49.2782 0
    endloop
  endfacet
  facet normal 0.397148 -0.917755 0
    outer loop
      vertex 19.5106 -49.2782 2
      vertex 19.5106 -49.2782 0
      vertex 22.5663 -47.9558 0
    endloop
  endfacet
  facet normal 0.397148 -0.917755 0
    outer loop
      vertex 22.5663 -47.9558 2
      vertex 19.5106 -49.2782 2
      vertex 22.5663 -47.9558 0
    endloop
  endfacet
  facet normal 0.45399 -0.891007 0
    outer loop
      vertex 22.5663 -47.9558 2
      vertex 22.5663 -47.9558 0
      vertex 25.5329 -46.4443 0
    endloop
  endfacet
  facet normal 0.45399 -0.891007 0
    outer loop
      vertex 25.5329 -46.4443 2
      vertex 22.5663 -47.9558 2
      vertex 25.5329 -46.4443 0
    endloop
  endfacet
  facet normal 0.509041 -0.860742 0
    outer loop
      vertex 25.5329 -46.4443 2
      vertex 25.5329 -46.4443 0
      vertex 28.3988 -44.7494 0
    endloop
  endfacet
  facet normal 0.509041 -0.860742 0
    outer loop
      vertex 28.3988 -44.7494 2
      vertex 25.5329 -46.4443 2
      vertex 28.3988 -44.7494 0
    endloop
  endfacet
  facet normal 0.562083 -0.827081 0
    outer loop
      vertex 28.3988 -44.7494 2
      vertex 28.3988 -44.7494 0
      vertex 31.1526 -42.8779 0
    endloop
  endfacet
  facet normal 0.562083 -0.827081 0
    outer loop
      vertex 31.1526 -42.8779 2
      vertex 28.3988 -44.7494 2
      vertex 31.1526 -42.8779 0
    endloop
  endfacet
  facet normal 0.612907 -0.790155 0
    outer loop
      vertex 31.1526 -42.8779 2
      vertex 31.1526 -42.8779 0
      vertex 33.7835 -40.8372 0
    endloop
  endfacet
  facet normal 0.612907 -0.790155 0
    outer loop
      vertex 33.7835 -40.8372 2
      vertex 31.1526 -42.8779 2
      vertex 33.7835 -40.8372 0
    endloop
  endfacet
  facet normal 0.661312 -0.750111 0
    outer loop
      vertex 33.7835 -40.8372 2
      vertex 33.7835 -40.8372 0
      vertex 36.281 -38.6353 0
    endloop
  endfacet
  facet normal 0.661312 -0.750111 0
    outer loop
      vertex 36.281 -38.6353 2
      vertex 33.7835 -40.8372 2
      vertex 36.281 -38.6353 0
    endloop
  endfacet
  facet normal 0.707107 -0.707107 0
    outer loop
      vertex 36.281 -38.6353 2
      vertex 36.281 -38.6353 0
      vertex 38.6353 -36.281 0
    endloop
  endfacet
  facet normal 0.707107 -0.707107 0
    outer loop
      vertex 38.6353 -36.281 2
      vertex 36.281 -38.6353 2
      vertex 38.6353 -36.281 0
    endloop
  endfacet
  facet normal 0.750111 -0.661312 0
    outer loop
      vertex 38.6353 -36.281 2
      vertex 38.6353 -36.281 0
      vertex 40.8372 -33.7835 0
    endloop
  endfacet
  facet normal 0.750111 -0.661312 0
    outer loop
      vertex 40.8372 -33.7835 2
      vertex 38.6353 -36.281 2
      vertex 40.8372 -33.7835 0
    endloop
  endfacet
  facet normal 0.790155 -0.612907 0
    outer loop
      vertex 40.8372 -33.7835 2
      vertex 40.8372 -33.7835 0
      vertex 42.8779 -31.1526 0
    endloop
  endfacet
  facet normal 0.790155 -0.612907 0
    outer loop
      vertex 42.8779 -31.1526 2
      vertex 40.8372 -33.7835 2
      vertex 42.8779 -31.1526 0
    endloop
  endfacet
  facet normal 0.827081 -0.562083 0
    outer loop
      vertex 42.8779 -31.1526 2
      vertex 42.8779 -31.1526 0
      vertex 44.7494 -28.3988 0
    endloop
  endfacet
  facet normal 0.827081 -0.562083 0
    outer loop
      vertex 44.7494 -28.3988 2
      vertex 42.8779 -31.1526 2
      vertex 44.7494 -28.3988 0
    endloop
  endfacet
  facet normal 0.860742 -0.509041 0
    outer loop
      vertex 44.7494 -28.3988 2
      vertex 44.7494 -28.3988 0
      vertex 46.4443 -25.5329 0
    endloop
  endfacet
  facet normal 0.860742 -0.509041 0
    outer loop
      vertex 46.4443 -25.5329 2
      vertex 44.7494 -28.3988 2
      vertex 46.4443 -25.5329 0
    endloop
  endfacet
  facet normal 0.891007 -0.45399 0
    outer loop
      vertex 46.4443 -25.5329 2
      vertex 46.4443 -25.5329 0
      vertex 47.9558 -22.5663 0
    endloop
  endfacet
  facet normal 0.891007 -0.45399 0
    outer loop
      vertex 47.9558 -22.5663 2
      vertex 46.4443 -25.5329 2
      vertex 47.9558 -22.5663 0
    endloop
  endfacet
  facet normal 0.917755 -0.397148 0
    outer loop
      vertex 47.9558 -22.5663 2
      vertex 47.9558 -22.5663 0
      vertex 49.2782 -19.5106 0
    endloop
  endfacet
  facet normal 0.917755 -0.397148 0
    outer loop
      vertex 49.2782 -19.5106 2
      vertex 47.9558 -22.5663 2
      vertex 49.2782 -19.5106 0
    endloop
  endfacet
  facet normal 0.940881 -0.338738 0
    outer loop
      vertex 49.2782 -19.5106 2
      vertex 49.2782 -19.5106 0
      vertex 50.406 -16.3779 0
    endloop
  endfacet
  facet normal 0.940881 -0.338738 0
    outer loop
      vertex 50.406 -16.3779 2
      vertex 49.2782 -19.5106 2
      vertex 50.406 -16.3779 0
    endloop
  endfacet
  facet normal 0.960294 -0.278991 0
    outer loop
      vertex 50.406 -16.3779 2
      vertex 50.406 -16.3779 0
      vertex 51.3349 -13.1806 0
    endloop
  endfacet
  facet normal 0.960294 -0.278991 0
    outer loop
      vertex 51.3349 -13.1806 2
      vertex 50.406 -16.3779 2
      vertex 51.3349 -13.1806 0
    endloop
  endfacet
  facet normal 0.975917 -0.218143 0
    outer loop
      vertex 51.3349 -13.1806 2
      vertex 51.3349 -13.1806 0
      vertex 52.0612 -9.93121 0
    endloop
  endfacet
  facet normal 0.975917 -0.218143 0
    outer loop
      vertex 52.0612 -9.93121 2
      vertex 51.3349 -13.1806 2
      vertex 52.0612 -9.93121 0
    endloop
  endfacet
  facet normal 0.987688 -0.156434 0
    outer loop
      vertex 52.0612 -9.93121 2
      vertex 52.0612 -9.93121 0
      vertex 52.5821 -6.64266 0
    endloop
  endfacet
  facet normal 0.987688 -0.156434 0
    outer loop
      vertex 52.5821 -6.64266 2
      vertex 52.0612 -9.93121 2
      vertex 52.5821 -6.64266 0
    endloop
  endfacet
  facet normal 0.995562 -0.0941085 0
    outer loop
      vertex 52.5821 -6.64266 2
      vertex 52.5821 -6.64266 0
      vertex 52.8954 -3.3279 0
    endloop
  endfacet
  facet normal 0.995562 -0.0941085 0
    outer loop
      vertex 52.8954 -3.3279 2
      vertex 52.5821 -6.64266 2
      vertex 52.8954 -3.3279 0
    endloop
  endfacet
  facet normal 0.999507 -0.0314106 0
    outer loop
      vertex 52.8954 -3.3279 2
      vertex 52.8954 -3.3279 0
      vertex 53 0 0
    endloop
  endfacet
  facet normal 0.999507 -0.0314106 0
    outer loop
      vertex 53 0 2
      vertex 52.8954 -3.3279 2
      vertex 53 0 0
    endloop
  endfacet
  facet normal 0.999507 0.0314106 0
    outer loop
      vertex 53 0 0
      vertex 52.8954 3.3279 0
      vertex 52.8954 3.3279 2
    endloop
  endfacet
  facet normal 0.999507 0.0314106 0
    outer loop
      vertex 53 0 2
      vertex 53 0 0
      vertex 52.8954 3.3279 2
    endloop
  endfacet
  facet normal 0.995562 0.0941085 0
    outer loop
      vertex 52.8954 3.3279 0
      vertex 52.5821 6.64266 0
      vertex 52.5821 6.64266 2
    endloop
  endfacet
  facet normal 0.995562 0.0941085 0
    outer loop
      vertex 52.8954 3.3279 2
      vertex 52.8954 3.3279 0
      vertex 52.5821 6.64266 2
    endloop
  endfacet
  facet normal 0.987688 0.156434 0
    outer loop
      vertex 52.5821 6.64266 0
      vertex 52.0612 9.93121 0
      vertex 52.0612 9.93121 2
    endloop
  endfacet
  facet normal 0.987688 0.156434 0
    outer loop
      vertex 52.5821 6.64266 2
      vertex 52.5821 6.64266 0
      vertex 52.0612 9.93121 2
    endloop
  endfacet
  facet normal 0.975917 0.218143 0
    outer loop
      vertex 52.0612 9.93121 0
      vertex 51.3349 13.1806 0
      vertex 51.3349 13.1806 2
    endloop
  endfacet
  facet normal 0.975917 0.218143 0
    outer loop
      vertex 52.0612 9.93121 2
      vertex 52.0612 9.93121 0
      vertex 51.3349 13.1806 2
    endloop
  endfacet
  facet normal 0.960294 0.278991 0
    outer loop
      vertex 51.3349 13.1806 0
      vertex 50.406 16.3779 0
      vertex 50.406 16.3779 2
    endloop
  endfacet
  facet normal 0.960294 0.278991 0
    outer loop
      vertex 51.3349 13.1806 2
      vertex 51.3349 13.1806 0
      vertex 50.406 16.3779 2
    endloop
  endfacet
  facet normal 0.940881 0.338738 0
    outer loop
      vertex 50.406 16.3779 0
      vertex 49.2782 19.5106 0
      vertex 49.2782 19.5106 2
    endloop
  endfacet
  facet normal 0.940881 0.338738 0
    outer loop
      vertex 50.406 16.3779 2
      vertex 50.406 16.3779 0
      vertex 49.2782 19.5106 2
    endloop
  endfacet
  facet normal 0.917755 0.397148 0
    outer loop
      vertex 49.2782 19.5106 0
      vertex 47.9558 22.5663 0
      vertex 47.9558 22.5663 2
    endloop
  endfacet
  facet normal 0.917755 0.397148 0
    outer loop
      vertex 49.2782 19.5106 2
      vertex 49.2782 19.5106 0
      vertex 47.9558 22.5663 2
    endloop
  endfacet
  facet normal 0.891007 0.45399 0
    outer loop
      vertex 47.9558 22.5663 0
      vertex 46.4443 25.5329 0
      vertex 46.4443 25.5329 2
    endloop
  endfacet
  facet normal 0.891007 0.45399 0
    outer loop
      vertex 47.9558 22.5663 2
      vertex 47.9558 22.5663 0
      vertex 46.4443 25.5329 2
    endloop
  endfacet
  facet normal 0.860742 0.509041 0
    outer loop
      vertex 46.4443 25.5329 0
      vertex 44.7494 28.3988 0
      vertex 44.7494 28.3988 2
    endloop
  endfacet
  facet normal 0.860742 0.509041 0
    outer loop
      vertex 46.4443 25.5329 2
      vertex 46.4443 25.5329 0
      vertex 44.7494 28.3988 2
    endloop
  endfacet
  facet normal 0.827081 0.562083 0
    outer loop
      vertex 44.7494 28.3988 0
      vertex 42.8779 31.1526 0
      vertex 42.8779 31.1526 2
    endloop
  endfacet
  facet normal 0.827081 0.562083 0
    outer loop
      vertex 44.7494 28.3988 2
      vertex 44.7494 28.3988 0
      vertex 42.8779 31.1526 2
    endloop
  endfacet
  facet normal 0.790155 0.612907 0
    outer loop
      vertex 42.8779 31.1526 0
      vertex 40.8372 33.7835 0
      vertex 40.8372 33.7835 2
    endloop
  endfacet
  facet normal 0.790155 0.612907 0
    outer loop
      vertex 42.8779 31.1526 2
      vertex 42.8779 31.1526 0
      vertex 40.8372 33.7835 2
    endloop
  endfacet
  facet normal 0.750111 0.661312 0
    outer loop
      vertex 40.8372 33.7835 0
      vertex 38.6353 36.281 0
      vertex 38.6353 36.281 2
    endloop
  endfacet
  facet normal 0.750111 0.661312 0
    outer loop
      vertex 40.8372 33.7835 2
      vertex 40.8372 33.7835 0
      vertex 38.6353 36.281 2
    endloop
  endfacet
  facet normal 0.707107 0.707107 0
    outer loop
      vertex 36.281 38.6353 0
      vertex 36.281 38.6353 2
      vertex 38.6353 36.281 0
    endloop
  endfacet
  facet normal 0.707107 0.707107 0
    outer loop
      vertex 38.6353 36.281 0
      vertex 36.281 38.6353 2
      vertex 38.6353 36.281 2
    endloop
  endfacet
  facet normal 0.661312 0.750111 0
    outer loop
      vertex 33.7835 40.8372 0
      vertex 33.7835 40.8372 2
      vertex 36.281 38.6353 0
    endloop
  endfacet
  facet normal 0.661312 0.750111 0
    outer loop
      vertex 36.281 38.6353 0
      vertex 33.7835 40.8372 2
      vertex 36.281 38.6353 2
    endloop
  endfacet
  facet normal 0.612907 0.790155 0
    outer loop
      vertex 31.1526 42.8779 0
      vertex 31.1526 42.8779 2
      vertex 33.7835 40.8372 0
    endloop
  endfacet
  facet normal 0.612907 0.790155 0
    outer loop
      vertex 33.7835 40.8372 0
      vertex 31.1526 42.8779 2
      vertex 33.7835 40.8372 2
    endloop
  endfacet
  facet normal 0.562083 0.827081 0
    outer loop
      vertex 28.3988 44.7494 0
      vertex 28.3988 44.7494 2
      vertex 31.1526 42.8779 0
    endloop
  endfacet
  facet normal 0.562083 0.827081 0
    outer loop
      vertex 31.1526 42.8779 0
      vertex 28.3988 44.7494 2
      vertex 31.1526 42.8779 2
    endloop
  endfacet
  facet normal 0.509041 0.860742 0
    outer loop
      vertex 25.5329 46.4443 0
      vertex 25.5329 46.4443 2
      vertex 28.3988 44.7494 0
    endloop
  endfacet
  facet normal 0.509041 0.860742 0
    outer loop
      vertex 28.3988 44.7494 0
      vertex 25.5329 46.4443 2
      vertex 28.3988 44.7494 2
    endloop
  endfacet
  facet normal 0.45399 0.891007 0
    outer loop
      vertex 22.5663 47.9558 0
      vertex 22.5663 47.9558 2
      vertex 25.5329 46.4443 0
    endloop
  endfacet
  facet normal 0.45399 0.891007 0
    outer loop
      vertex 25.5329 46.4443 0
      vertex 22.5663 47.9558 2
      vertex 25.5329 46.4443 2
    endloop
  endfacet
  facet normal 0.397148 0.917755 0
    outer loop
      vertex 19.5106 49.2782 0
      vertex 19.5106 49.2782 2
      vertex 22.5663 47.9558 0
    endloop
  endfacet
  facet normal 0.397148 0.917755 0
    outer loop
      vertex 22.5663 47.9558 0
      vertex 19.5106 49.2782 2
      vertex 22.5663 47.9558 2
    endloop
  endfacet
  facet normal 0.338738 0.940881 0
    outer loop
      vertex 16.3779 50.406 0
      vertex 16.3779 50.406 2
      vertex 19.5106 49.2782 0
    endloop
  endfacet
  facet normal 0.338738 0.940881 0
    outer loop
      vertex 19.5106 49.2782 0
      vertex 16.3779 50.406 2
      vertex 19.5106 49.2782 2
    endloop
  endfacet
  facet normal 0.278991 0.960294 0
    outer loop
      vertex 13.1806 51.3349 0
      vertex 13.1806 51.3349 2
      vertex 16.3779 50.406 0
    endloop
  endfacet
  facet normal 0.278991 0.960294 0
    outer loop
      vertex 16.3779 50.406 0
      vertex 13.1806 51.3349 2
      vertex 16.3779 50.406 2
    endloop
  endfacet
  facet normal 0.218143 0.975917 0
    outer loop
      vertex 9.93121 52.0612 0
      vertex 9.93121 52.0612 2
      vertex 13.1806 51.3349 0
    endloop
  endfacet
  facet normal 0.218143 0.975917 0
    outer loop
      vertex 13.1806 51.3349 0
      vertex 9.93121 52.0612 2
      vertex 13.1806 51.3349 2
    endloop
  endfacet
  facet normal 0.156434 0.987688 0
    outer loop
      vertex 6.64266 52.5821 0
      vertex 6.64266 52.5821 2
      vertex 9.93121 52.0612 0
    endloop
  endfacet
  facet normal 0.156434 0.987688 0
    outer loop
      vertex 9.93121 52.0612 0
      vertex 6.64266 52.5821 2
      vertex 9.93121 52.0612 2
    endloop
  endfacet
  facet normal 0.0941085 0.995562 0
    outer loop
      vertex 3.3279 52.8954 0
      vertex 3.3279 52.8954 2
      vertex 6.64266 52.5821 0
    endloop
  endfacet
  facet normal 0.0941085 0.995562 0
    outer loop
      vertex 6.64266 52.5821 0
      vertex 3.3279 52.8954 2
      vertex 6.64266 52.5821 2
    endloop
  endfacet
  facet normal 0.0314106 0.999507 0
    outer loop
      vertex 0 53 0
      vertex 0 53 2
      vertex 3.3279 52.8954 0
    endloop
  endfacet
  facet normal 0.0314106 0.999507 0
    outer loop
      vertex 3.3279 52.8954 0
      vertex 0 53 2
      vertex 3.3279 52.8954 2
    endloop
  endfacet
  facet normal -0.0314106 0.999507 0
    outer loop
      vertex -3.3279 52.8954 0
      vertex -3.3279 52.8954 2
      vertex 0 53 0
    endloop
  endfacet
  facet normal -0.0314106 0.999507 0
    outer loop
      vertex 0 53 0
      vertex -3.3279 52.8954 2
      vertex 0 53 2
    endloop
  endfacet
  facet normal -0.0941085 0.995562 0
    outer loop
      vertex -6.64266 52.5821 0
      vertex -6.64266 52.5821 2
      vertex -3.3279 52.8954 0
    endloop
  endfacet
  facet normal -0.0941085 0.995562 0
    outer loop
      vertex -3.3279 52.8954 0
      vertex -6.64266 52.5821 2
      vertex -3.3279 52.8954 2
    endloop
  endfacet
  facet normal -0.156434 0.987688 0
    outer loop
      vertex -9.93121 52.0612 0
      vertex -9.93121 52.0612 2
      vertex -6.64266 52.5821 0
    endloop
  endfacet
  facet normal -0.156434 0.987688 0
    outer loop
      vertex -6.64266 52.5821 0
      vertex -9.93121 52.0612 2
      vertex -6.64266 52.5821 2
    endloop
  endfacet
  facet normal -0.218143 0.975917 0
    outer loop
      vertex -13.1806 51.3349 0
      vertex -13.1806 51.3349 2
      vertex -9.93121 52.0612 0
    endloop
  endfacet
  facet normal -0.218143 0.975917 0
    outer loop
      vertex -9.93121 52.0612 0
      vertex -13.1806 51.3349 2
      vertex -9.93121 52.0612 2
    endloop
  endfacet
  facet normal -0.278991 0.960294 0
    outer loop
      vertex -16.3779 50.406 0
      vertex -16.3779 50.406 2
      vertex -13.1806 51.3349 0
    endloop
  endfacet
  facet normal -0.278991 0.960294 0
    outer loop
      vertex -13.1806 51.3349 0
      vertex -16.3779 50.406 2
      vertex -13.1806 51.3349 2
    endloop
  endfacet
  facet normal -0.338738 0.940881 0
    outer loop
      vertex -19.5106 49.2782 0
      vertex -19.5106 49.2782 2
      vertex -16.3779 50.406 0
    endloop
  endfacet
  facet normal -0.338738 0.940881 0
    outer loop
      vertex -16.3779 50.406 0
      vertex -19.5106 49.2782 2
      vertex -16.3779 50.406 2
    endloop
  endfacet
  facet normal -0.397148 0.917755 0
    outer loop
      vertex -22.5663 47.9558 0
      vertex -22.5663 47.9558 2
      vertex -19.5106 49.2782 0
    endloop
  endfacet
  facet normal -0.397148 0.917755 0
    outer loop
      vertex -19.5106 49.2782 0
      vertex -22.5663 47.9558 2
      vertex -19.5106 49.2782 2
    endloop
  endfacet
  facet normal -0.45399 0.891007 0
    outer loop
      vertex -25.5329 46.4443 0
      vertex -25.5329 46.4443 2
      vertex -22.5663 47.9558 0
    endloop
  endfacet
  facet normal -0.45399 0.891007 0
    outer loop
      vertex -22.5663 47.9558 0
      vertex -25.5329 46.4443 2
      vertex -22.5663 47.9558 2
    endloop
  endfacet
  facet normal -0.509041 0.860742 0
    outer loop
      vertex -28.3988 44.7494 0
      vertex -28.3988 44.7494 2
      vertex -25.5329 46.4443 0
    endloop
  endfacet
  facet normal -0.509041 0.860742 0
    outer loop
      vertex -25.5329 46.4443 0
      vertex -28.3988 44.7494 2
      vertex -25.5329 46.4443 2
    endloop
  endfacet
  facet normal -0.562083 0.827081 0
    outer loop
      vertex -31.1526 42.8779 0
      vertex -31.1526 42.8779 2
      vertex -28.3988 44.7494 0
    endloop
  endfacet
  facet normal -0.562083 0.827081 0
    outer loop
      vertex -28.3988 44.7494 0
      vertex -31.1526 42.8779 2
      vertex -28.3988 44.7494 2
    endloop
  endfacet
  facet normal -0.612907 0.790155 0
    outer loop
      vertex -33.7835 40.8372 0
      vertex -33.7835 40.8372 2
      vertex -31.1526 42.8779 0
    endloop
  endfacet
  facet normal -0.612907 0.790155 0
    outer loop
      vertex -31.1526 42.8779 0
      vertex -33.7835 40.8372 2
      vertex -31.1526 42.8779 2
    endloop
  endfacet
  facet normal -0.661312 0.750111 0
    outer loop
      vertex -36.281 38.6353 0
      vertex -36.281 38.6353 2
      vertex -33.7835 40.8372 0
    endloop
  endfacet
  facet normal -0.661312 0.750111 0
    outer loop
      vertex -33.7835 40.8372 0
      vertex -36.281 38.6353 2
      vertex -33.7835 40.8372 2
    endloop
  endfacet
  facet normal -0.707107 0.707107 0
    outer loop
      vertex -38.6353 36.281 0
      vertex -38.6353 36.281 2
      vertex -36.281 38.6353 0
    endloop
  endfacet
  facet normal -0.707107 0.707107 0
    outer loop
      vertex -36.281 38.6353 0
      vertex -38.6353 36.281 2
      vertex -36.281 38.6353 2
    endloop
  endfacet
  facet normal -0.750111 0.661312 0
    outer loop
      vertex -40.8372 33.7835 0
      vertex -40.8372 33.7835 2
      vertex -38.6353 36.281 0
    endloop
  endfacet
  facet normal -0.750111 0.661312 0
    outer loop
      vertex -38.6353 36.281 0
      vertex -40.8372 33.7835 2
      vertex -38.6353 36.281 2
    endloop
  endfacet
  facet normal -0.790155 0.612907 0
    outer loop
      vertex -42.8779 31.1526 0
      vertex -42.8779 31.1526 2
      vertex -40.8372 33.7835 0
    endloop
  endfacet
  facet normal -0.790155 0.612907 0
    outer loop
      vertex -40.8372 33.7835 0
      vertex -42.8779 31.1526 2
      vertex -40.8372 33.7835 2
    endloop
  endfacet
  facet normal -0.827081 0.562083 0
    outer loop
      vertex -44.7494 28.3988 0
      vertex -44.7494 28.3988 2
      vertex -42.8779 31.1526 0
    endloop
  endfacet
  facet normal -0.827081 0.562083 0
    outer loop
      vertex -42.8779 31.1526 0
      vertex -44.7494 28.3988 2
      vertex -42.8779 31.1526 2
    endloop
  endfacet
  facet normal -0.860742 0.509041 0
    outer loop
      vertex -46.4443 25.5329 0
      vertex -46.4443 25.5329 2
      vertex -44.7494 28.3988 0
    endloop
  endfacet
  facet normal -0.860742 0.509041 0
    outer loop
      vertex -44.7494 28.3988 0
      vertex -46.4443 25.5329 2
      vertex -44.7494 28.3988 2
    endloop
  endfacet
  facet normal -0.891007 0.45399 0
    outer loop
      vertex -47.9558 22.5663 0
      vertex -47.9558 22.5663 2
      vertex -46.4443 25.5329 0
    endloop
  endfacet
  facet normal -0.891007 0.45399 0
    outer loop
      vertex -46.4443 25.5329 0
      vertex -47.9558 22.5663 2
      vertex -46.4443 25.5329 2
    endloop
  endfacet
  facet normal -0.917755 0.397148 0
    outer loop
      vertex -49.2782 19.5106 0
      vertex -49.2782 19.5106 2
      vertex -47.9558 22.5663 0
    endloop
  endfacet
  facet normal -0.917755 0.397148 0
    outer loop
      vertex -47.9558 22.5663 0
      vertex -49.2782 19.5106 2
      vertex -47.9558 22.5663 2
    endloop
  endfacet
  facet normal -0.940881 0.338738 0
    outer loop
      vertex -50.406 16.3779 0
      vertex -50.406 16.3779 2
      vertex -49.2782 19.5106 0
    endloop
  endfacet
  facet normal -0.940881 0.338738 0
    outer loop
      vertex -49.2782 19.5106 0
      vertex -50.406 16.3779 2
      vertex -49.2782 19.5106 2
    endloop
  endfacet
  facet normal -0.960294 0.278991 0
    outer loop
      vertex -51.3349 13.1806 0
      vertex -51.3349 13.1806 2
      vertex -50.406 16.3779 0
    endloop
  endfacet
  facet normal -0.960294 0.278991 0
    outer loop
      vertex -50.406 16.3779 0
      vertex -51.3349 13.1806 2
      vertex -50.406 16.3779 2
    endloop
  endfacet
  facet normal -0.975917 0.218143 0
    outer loop
      vertex -52.0612 9.93121 0
      vertex -52.0612 9.93121 2
      vertex -51.3349 13.1806 0
    endloop
  endfacet
  facet normal -0.975917 0.218143 0
    outer loop
      vertex -51.3349 13.1806 0
      vertex -52.0612 9.93121 2
      vertex -51.3349 13.1806 2
    endloop
  endfacet
  facet normal -0.987688 0.156434 0
    outer loop
      vertex -52.5821 6.64266 0
      vertex -52.5821 6.64266 2
      vertex -52.0612 9.93121 0
    endloop
  endfacet
  facet normal -0.987688 0.156434 0
    outer loop
      vertex -52.0612 9.93121 0
      vertex -52.5821 6.64266 2
      vertex -52.0612 9.93121 2
    endloop
  endfacet
  facet normal -0.995562 0.0941085 0
    outer loop
      vertex -52.8954 3.3279 0
      vertex -52.8954 3.3279 2
      vertex -52.5821 6.64266 0
    endloop
  endfacet
  facet normal -0.995562 0.0941085 0
    outer loop
      vertex -52.5821 6.64266 0
      vertex -52.8954 3.3279 2
      vertex -52.5821 6.64266 2
    endloop
  endfacet
  facet normal 1 0 0
    outer loop
      vertex -31 22 0
      vertex -31 22 2
      vertex -31 -22 2
    endloop
  endfacet
  facet normal 1 0 0
    outer loop
      vertex -31 -22 0
      vertex -31 22 0
      vertex -31 -22 2
    endloop
  endfacet
  facet normal 0 -1 0
    outer loop
      vertex 35 22 0
      vertex 35 22 2
      vertex -31 22 2
    endloop
  endfacet
  facet normal 0 -1 0
    outer loop
      vertex -31 22 0
      vertex 35 22 0
      vertex -31 22 2
    endloop
  endfacet
  facet normal -1 0 0
    outer loop
      vertex 35 22 2
      vertex 35 22 0
      vertex 35 -22 2
    endloop
  endfacet
  facet normal -1 0 0
    outer loop
      vertex 35 -22 2
      vertex 35 22 0
      vertex 35 -22 0
    endloop
  endfacet
  facet normal 0 1 0
    outer loop
      vertex 35 -22 2
      vertex 35 -22 0
      vertex -31 -22 2
    endloop
  endfacet
  facet normal 0 1 0
    outer loop
      vertex -31 -22 2
      vertex 35 -22 0
      vertex -31 -22 0
    endloop
  endfacet
  facet normal 0 0 1
    outer loop
      vertex -52.8954 3.3279 2
      vertex -53 0 2
      vertex -52.8954 -3.3279 2
    endloop
  endfacet
  facet normal 0 0 1
    outer loop
      vertex -52.0612 -9.93121 2
      vertex -52.8954 3.3279 2
      vertex -52.5821 -6.64266 2
    endloop
  endfacet
  facet normal 0 0 1
    outer loop
      vertex -52.5821 -6.64266 2
      vertex -52.8954 3.3279 2
      vertex -52.8954 -3.3279 2
    endloop
  endfacet
  facet normal 0 0 1
    outer loop
      vertex -51.3349 -13.1806 2
      vertex -52.8954 3.3279 2
      vertex -52.0612 -9.93121 2
    endloop
  endfacet
  facet normal 0 0 1
    outer loop
      vertex -50.406 -16.3779 2
      vertex -52.8954 3.3279 2
      vertex -51.3349 -13.1806 2
    endloop
  endfacet
  facet normal 0 0 1
    outer loop
      vertex -49.2782 -19.5106 2
      vertex -52.8954 3.3279 2
      vertex -50.406 -16.3779 2
    endloop
  endfacet
  facet normal 0 0 1
    outer loop
      vertex -47.9558 -22.5663 2
      vertex -52.8954 3.3279 2
      vertex -49.2782 -19.5106 2
    endloop
  endfacet
  facet normal 0 0 1
    outer loop
      vertex -46.4443 -25.5329 2
      vertex -52.8954 3.3279 2
      vertex -47.9558 -22.5663 2
    endloop
  endfacet
  facet normal 0 0 1
    outer loop
      vertex -44.7494 -28.3988 2
      vertex -52.8954 3.3279 2
      vertex -46.4443 -25.5329 2
    endloop
  endfacet
  facet normal 0 0 1
    outer loop
      vertex -42.8779 -31.1526 2
      vertex -52.8954 3.3279 2
      vertex -44.7494 -28.3988 2
    endloop
  endfacet
  facet normal 0 0 1
    outer loop
      vertex -40.8372 -33.7835 2
      vertex -52.8954 3.3279 2
      vertex -42.8779 -31.1526 2
    endloop
  endfacet
  facet normal 0 0 1
    outer loop
      vertex -38.6353 -36.281 2
      vertex -52.8954 3.3279 2
      vertex -40.8372 -33.7835 2
    endloop
  endfacet
  facet normal 0 0 1
    outer loop
      vertex -36.281 -38.6353 2
      vertex -52.8954 3.3279 2
      vertex -38.6353 -36.281 2
    endloop
  endfacet
  facet normal 0 0 1
    outer loop
      vertex -33.7835 -40.8372 2
      vertex -52.8954 3.3279 2
      vertex -36.281 -38.6353 2
    endloop
  endfacet
  facet normal 0 0 1
    outer loop
      vertex -31.1526 -42.8779 2
      vertex -52.8954 3.3279 2
      vertex -33.7835 -40.8372 2
    endloop
  endfacet
  facet normal 0 0 1
    outer loop
      vertex -28.3988 -44.7494 2
      vertex -52.8954 3.3279 2
      vertex -31.1526 -42.8779 2
    endloop
  endfacet
  facet normal 0 0 1
    outer loop
      vertex -25.5329 -46.4443 2
      vertex -52.8954 3.3279 2
      vertex -28.3988 -44.7494 2
    endloop
  endfacet
  facet normal 0 0 1
    outer loop
      vertex -22.5663 -47.9558 2
      vertex -52.8954 3.3279 2
      vertex -25.5329 -46.4443 2
    endloop
  endfacet
  facet normal 0 0 1
    outer loop
      vertex -19.5106 -49.2782 2
      vertex -52.8954 3.3279 2
      vertex -22.5663 -47.9558 2
    endloop
  endfacet
  facet normal 0 0 1
    outer loop
      vertex -16.3779 -50.406 2
      vertex -52.8954 3.3279 2
      vertex -19.5106 -49.2782 2
    endloop
  endfacet
  facet normal 0 0 1
    outer loop
      vertex -13.1806 -51.3349 2
      vertex -52.8954 3.3279 2
      vertex -16.3779 -50.406 2
    endloop
  endfacet
  facet normal 0 0 1
    outer loop
      vertex -9.93121 -52.0612 2
      vertex -52.8954 3.3279 2
      vertex -13.1806 -51.3349 2
    endloop
  endfacet
  facet normal 0 0 1
    outer loop
      vertex -6.64266 -52.5821 2
      vertex -52.8954 3.3279 2
      vertex -9.93121 -52.0612 2
    endloop
  endfacet
  facet normal 0 0 1
    outer loop
      vertex -31 -22 2
      vertex -52.8954 3.3279 2
      vertex -6.64266 -52.5821 2
    endloop
  endfacet
  facet normal 0 0 1
    outer loop
      vertex -31 22 2
      vertex 13.1806 51.3349 2
      vertex 9.93121 52.0612 2
    endloop
  endfacet
  facet normal 0 0 1
    outer loop
      vertex -31 22 2
      vertex 16.3779 50.406 2
      vertex 13.1806 51.3349 2
    endloop
  endfacet
  facet normal 0 0 1
    outer loop
      vertex -31 22 2
      vertex 19.5106 49.2782 2
      vertex 16.3779 50.406 2
    endloop
  endfacet
  facet normal 0 0 1
    outer loop
      vertex -31 22 2
      vertex 22.5663 47.9558 2
      vertex 19.5106 49.2782 2
    endloop
  endfacet
  facet normal 0 0 1
    outer loop
      vertex -31 22 2
      vertex 25.5329 46.4443 2
      vertex 22.5663 47.9558 2
    endloop
  endfacet
  facet normal 0 0 1
    outer loop
      vertex -31 22 2
      vertex 28.3988 44.7494 2
      vertex 25.5329 46.4443 2
    endloop
  endfacet
  facet normal 0 0 1
    outer loop
      vertex -31 22 2
      vertex 31.1526 42.8779 2
      vertex 28.3988 44.7494 2
    endloop
  endfacet
  facet normal 0 0 1
    outer loop
      vertex -31 22 2
      vertex 33.7835 40.8372 2
      vertex 31.1526 42.8779 2
    endloop
  endfacet
  facet normal 0 0 1
    outer loop
      vertex -31 22 2
      vertex 36.281 38.6353 2
      vertex 33.7835 40.8372 2
    endloop
  endfacet
  facet normal 0 0 1
    outer loop
      vertex -31 22 2
      vertex 38.6353 36.281 2
      vertex 36.281 38.6353 2
    endloop
  endfacet
  facet normal 0 0 1
    outer loop
      vertex -31 22 2
      vertex 40.8372 33.7835 2
      vertex 38.6353 36.281 2
    endloop
  endfacet
  facet normal 0 0 1
    outer loop
      vertex -31 22 2
      vertex 42.8779 31.1526 2
      vertex 40.8372 33.7835 2
    endloop
  endfacet
  facet normal 0 0 1
    outer loop
      vertex -31 22 2
      vertex 44.7494 28.3988 2
      vertex 42.8779 31.1526 2
    endloop
  endfacet
  facet normal 0 0 1
    outer loop
      vertex -31 22 2
      vertex 46.4443 25.5329 2
      vertex 44.7494 28.3988 2
    endloop
  endfacet
  facet normal 0 0 1
    outer loop
      vertex -31 22 2
      vertex 35 22 2
      vertex 46.4443 25.5329 2
    endloop
  endfacet
  facet normal 0 0 1
    outer loop
      vertex 35 22 2
      vertex 49.2782 19.5106 2
      vertex 47.9558 22.5663 2
    endloop
  endfacet
  facet normal 0 0 1
    outer loop
      vertex 35 22 2
      vertex 35 -22 2
      vertex 47.9558 -22.5663 2
    endloop
  endfacet
  facet normal 0 0 1
    outer loop
      vertex 35 22 2
      vertex 47.9558 -22.5663 2
      vertex 49.2782 -19.5106 2
    endloop
  endfacet
  facet normal 0 0 1
    outer loop
      vertex 35 22 2
      vertex 49.2782 -19.5106 2
      vertex 50.406 -16.3779 2
    endloop
  endfacet
  facet normal 0 0 1
    outer loop
      vertex 35 22 2
      vertex 50.406 -16.3779 2
      vertex 51.3349 -13.1806 2
    endloop
  endfacet
  facet normal 0 0 1
    outer loop
      vertex 35 22 2
      vertex 51.3349 -13.1806 2
      vertex 52.0612 -9.93121 2
    endloop
  endfacet
  facet normal 0 0 1
    outer loop
      vertex 35 22 2
      vertex 52.0612 -9.93121 2
      vertex 52.5821 -6.64266 2
    endloop
  endfacet
  facet normal 0 0 1
    outer loop
      vertex 35 22 2
      vertex 52.5821 -6.64266 2
      vertex 52.8954 -3.3279 2
    endloop
  endfacet
  facet normal 0 0 1
    outer loop
      vertex 35 22 2
      vertex 52.8954 -3.3279 2
      vertex 53 0 2
    endloop
  endfacet
  facet normal 0 0 1
    outer loop
      vertex 35 22 2
      vertex 53 0 2
      vertex 52.8954 3.3279 2
    endloop
  endfacet
  facet normal 0 0 1
    outer loop
      vertex 35 22 2
      vertex 52.8954 3.3279 2
      vertex 52.5821 6.64266 2
    endloop
  endfacet
  facet normal 0 0 1
    outer loop
      vertex 35 22 2
      vertex 52.5821 6.64266 2
      vertex 52.0612 9.93121 2
    endloop
  endfacet
  facet normal 0 0 1
    outer loop
      vertex 35 22 2
      vertex 52.0612 9.93121 2
      vertex 51.3349 13.1806 2
    endloop
  endfacet
  facet normal 0 0 1
    outer loop
      vertex 35 22 2
      vertex 51.3349 13.1806 2
      vertex 50.406 16.3779 2
    endloop
  endfacet
  facet normal 0 0 1
    outer loop
      vertex 35 22 2
      vertex 50.406 16.3779 2
      vertex 49.2782 19.5106 2
    endloop
  endfacet
  facet normal 0 0 1
    outer loop
      vertex 0 53 2
      vertex -52.8954 3.3279 2
      vertex 3.3279 52.8954 2
    endloop
  endfacet
  facet normal 0 0 1
    outer loop
      vertex -3.3279 52.8954 2
      vertex -52.8954 3.3279 2
      vertex 0 53 2
    endloop
  endfacet
  facet normal 0 0 1
    outer loop
      vertex -6.64266 52.5821 2
      vertex -52.8954 3.3279 2
      vertex -3.3279 52.8954 2
    endloop
  endfacet
  facet normal 0 0 1
    outer loop
      vertex -9.93121 52.0612 2
      vertex -52.8954 3.3279 2
      vertex -6.64266 52.5821 2
    endloop
  endfacet
  facet normal 0 0 1
    outer loop
      vertex -13.1806 51.3349 2
      vertex -52.8954 3.3279 2
      vertex -9.93121 52.0612 2
    endloop
  endfacet
  facet normal 0 0 1
    outer loop
      vertex -16.3779 50.406 2
      vertex -52.8954 3.3279 2
      vertex -13.1806 51.3349 2
    endloop
  endfacet
  facet normal 0 0 1
    outer loop
      vertex -19.5106 49.2782 2
      vertex -52.8954 3.3279 2
      vertex -16.3779 50.406 2
    endloop
  endfacet
  facet normal 0 0 1
    outer loop
      vertex -22.5663 47.9558 2
      vertex -52.8954 3.3279 2
      vertex -19.5106 49.2782 2
    endloop
  endfacet
  facet normal 0 0 1
    outer loop
      vertex -25.5329 46.4443 2
      vertex -52.8954 3.3279 2
      vertex -22.5663 47.9558 2
    endloop
  endfacet
  facet normal 0 0 1
    outer loop
      vertex -28.3988 44.7494 2
      vertex -52.8954 3.3279 2
      vertex -25.5329 46.4443 2
    endloop
  endfacet
  facet normal 0 0 1
    outer loop
      vertex -31.1526 42.8779 2
      vertex -52.8954 3.3279 2
      vertex -28.3988 44.7494 2
    endloop
  endfacet
  facet normal 0 0 1
    outer loop
      vertex -33.7835 40.8372 2
      vertex -52.8954 3.3279 2
      vertex -31.1526 42.8779 2
    endloop
  endfacet
  facet normal 0 0 1
    outer loop
      vertex -36.281 38.6353 2
      vertex -52.8954 3.3279 2
      vertex -33.7835 40.8372 2
    endloop
  endfacet
  facet normal 0 0 1
    outer loop
      vertex -38.6353 36.281 2
      vertex -52.8954 3.3279 2
      vertex -36.281 38.6353 2
    endloop
  endfacet
  facet normal 0 0 1
    outer loop
      vertex -40.8372 33.7835 2
      vertex -52.8954 3.3279 2
      vertex -38.6353 36.281 2
    endloop
  endfacet
  facet normal 0 0 1
    outer loop
      vertex -42.8779 31.1526 2
      vertex -52.8954 3.3279 2
      vertex -40.8372 33.7835 2
    endloop
  endfacet
  facet normal 0 0 1
    outer loop
      vertex -44.7494 28.3988 2
      vertex -52.8954 3.3279 2
      vertex -42.8779 31.1526 2
    endloop
  endfacet
  facet normal 0 0 1
    outer loop
      vertex -46.4443 25.5329 2
      vertex -52.8954 3.3279 2
      vertex -44.7494 28.3988 2
    endloop
  endfacet
  facet normal 0 0 1
    outer loop
      vertex -47.9558 22.5663 2
      vertex -52.8954 3.3279 2
      vertex -46.4443 25.5329 2
    endloop
  endfacet
  facet normal 0 0 1
    outer loop
      vertex -49.2782 19.5106 2
      vertex -52.8954 3.3279 2
      vertex -47.9558 22.5663 2
    endloop
  endfacet
  facet normal 0 0 1
    outer loop
      vertex -50.406 16.3779 2
      vertex -52.8954 3.3279 2
      vertex -49.2782 19.5106 2
    endloop
  endfacet
  facet normal 0 0 1
    outer loop
      vertex -51.3349 13.1806 2
      vertex -52.8954 3.3279 2
      vertex -50.406 16.3779 2
    endloop
  endfacet
  facet normal 0 0 1
    outer loop
      vertex -52.0612 9.93121 2
      vertex -52.8954 3.3279 2
      vertex -51.3349 13.1806 2
    endloop
  endfacet
  facet normal 0 0 1
    outer loop
      vertex -52.5821 6.64266 2
      vertex -52.8954 3.3279 2
      vertex -52.0612 9.93121 2
    endloop
  endfacet
  facet normal 0 0 1
    outer loop
      vertex -3.3279 -52.8954 2
      vertex -31 -22 2
      vertex -6.64266 -52.5821 2
    endloop
  endfacet
  facet normal 0 0 1
    outer loop
      vertex -31 22 2
      vertex 9.93121 52.0612 2
      vertex 6.64266 52.5821 2
    endloop
  endfacet
  facet normal 0 0 1
    outer loop
      vertex 3.3279 52.8954 2
      vertex -31 22 2
      vertex 6.64266 52.5821 2
    endloop
  endfacet
  facet normal 0 0 1
    outer loop
      vertex 3.3279 52.8954 2
      vertex -52.8954 3.3279 2
      vertex -31 22 2
    endloop
  endfacet
  facet normal 0 0 1
    outer loop
      vertex 46.4443 25.5329 2
      vertex 35 22 2
      vertex 47.9558 22.5663 2
    endloop
  endfacet
  facet normal 0 0 1
    outer loop
      vertex 47.9558 -22.5663 2
      vertex 35 -22 2
      vertex 46.4443 -25.5329 2
    endloop
  endfacet
  facet normal 0 0 1
    outer loop
      vertex 35 -22 2
      vertex 44.7494 -28.3988 2
      vertex 46.4443 -25.5329 2
    endloop
  endfacet
  facet normal 0 0 1
    outer loop
      vertex 35 -22 2
      vertex 42.8779 -31.1526 2
      vertex 44.7494 -28.3988 2
    endloop
  endfacet
  facet normal 0 0 1
    outer loop
      vertex 35 -22 2
      vertex 40.8372 -33.7835 2
      vertex 42.8779 -31.1526 2
    endloop
  endfacet
  facet normal 0 0 1
    outer loop
      vertex 35 -22 2
      vertex 38.6353 -36.281 2
      vertex 40.8372 -33.7835 2
    endloop
  endfacet
  facet normal 0 0 1
    outer loop
      vertex 35 -22 2
      vertex 36.281 -38.6353 2
      vertex 38.6353 -36.281 2
    endloop
  endfacet
  facet normal 0 0 1
    outer loop
      vertex 35 -22 2
      vertex 33.7835 -40.8372 2
      vertex 36.281 -38.6353 2
    endloop
  endfacet
  facet normal 0 0 1
    outer loop
      vertex 35 -22 2
      vertex 31.1526 -42.8779 2
      vertex 33.7835 -40.8372 2
    endloop
  endfacet
  facet normal 0 0 1
    outer loop
      vertex 35 -22 2
      vertex 28.3988 -44.7494 2
      vertex 31.1526 -42.8779 2
    endloop
  endfacet
  facet normal 0 0 1
    outer loop
      vertex 35 -22 2
      vertex 25.5329 -46.4443 2
      vertex 28.3988 -44.7494 2
    endloop
  endfacet
  facet normal 0 0 1
    outer loop
      vertex 35 -22 2
      vertex 22.5663 -47.9558 2
      vertex 25.5329 -46.4443 2
    endloop
  endfacet
  facet normal 0 0 1
    outer loop
      vertex 35 -22 2
      vertex 19.5106 -49.2782 2
      vertex 22.5663 -47.9558 2
    endloop
  endfacet
  facet normal 0 0 1
    outer loop
      vertex 35 -22 2
      vertex 16.3779 -50.406 2
      vertex 19.5106 -49.2782 2
    endloop
  endfacet
  facet normal 0 0 1
    outer loop
      vertex 35 -22 2
      vertex 13.1806 -51.3349 2
      vertex 16.3779 -50.406 2
    endloop
  endfacet
  facet normal 0 0 1
    outer loop
      vertex 35 -22 2
      vertex 9.93121 -52.0612 2
      vertex 13.1806 -51.3349 2
    endloop
  endfacet
  facet normal 0 0 1
    outer loop
      vertex 35 -22 2
      vertex 6.64266 -52.5821 2
      vertex 9.93121 -52.0612 2
    endloop
  endfacet
  facet normal 0 0 1
    outer loop
      vertex 35 -22 2
      vertex 3.3279 -52.8954 2
      vertex 6.64266 -52.5821 2
    endloop
  endfacet
  facet normal 0 0 1
    outer loop
      vertex 35 -22 2
      vertex 0 -53 2
      vertex 3.3279 -52.8954 2
    endloop
  endfacet
  facet normal 0 0 1
    outer loop
      vertex 35 -22 2
      vertex -3.3279 -52.8954 2
      vertex 0 -53 2
    endloop
  endfacet
  facet normal 0 0 1
    outer loop
      vertex 35 -22 2
      vertex -31 -22 2
      vertex -3.3279 -52.8954 2
    endloop
  endfacet
  facet normal 0 0 1
    outer loop
      vertex -31 -22 2
      vertex -31 22 2
      vertex -52.8954 3.3279 2
    endloop
  endfacet
endsolid OpenSCAD_Model
